<svg xmlns="http://www.w3.org/2000/svg" viewBox="0 0 400 240" fill="none">
  <rect width="400" height="240" fill="#87CEEB"/>
  <rect y="170" width="400" height="70" fill="#9CA3AF"/>
  <rect x="0" y="168" width="400" height="6" fill="#FBBF24"/>
  <path d="M20 168 L200 90 L380 168 Z" fill="#DC2626"/>
  <rect x="20" y="168" width="360" height="14" fill="#FFFFFF"/>
  <text x="200" y="118" text-anchor="middle" fill="#FFFFFF" font-family="PingFang SC, Microsoft YaHei, sans-serif" font-size="22" font-weight="700">中国石化</text>
  <text x="200" y="138" text-anchor="middle" fill="#FFFFFF" font-family="Arial, sans-serif" font-size="11" letter-spacing="2">SINOPEC</text>
  <rect x="90" y="175" width="50" height="55" rx="4" fill="#374151"/>
  <rect x="92" y="177" width="46" height="18" rx="2" fill="#DC2626"/>
  <rect x="260" y="175" width="50" height="55" rx="4" fill="#374151"/>
  <rect x="262" y="177" width="46" height="18" rx="2" fill="#DC2626"/>
  <!-- 吸烟违规 -->
  <circle cx="115" cy="158" r="28" fill="none" stroke="#DC2626" stroke-width="3"/>
  <ellipse cx="108" cy="152" rx="8" ry="10" fill="#FCD34D"/>
  <rect x="100" y="162" width="16" height="22" rx="8" fill="#2563EB"/>
  <line x1="108" y1="148" x2="108" y2="138" stroke="#9CA3AF" stroke-width="2"/>
  <circle cx="108" cy="136" r="3" fill="#F97316"/>
  <path d="M110 133 Q112 128 115 125" stroke="#6B7280" stroke-width="1.5" fill="none"/>
  <text x="115" y="198" text-anchor="middle" fill="#DC2626" font-family="PingFang SC, Microsoft YaHei, sans-serif" font-size="10" font-weight="700">加油区吸烟</text>
  <!-- 使用手机违规 -->
  <circle cx="285" cy="158" r="28" fill="none" stroke="#DC2626" stroke-width="3"/>
  <ellipse cx="285" cy="150" rx="8" ry="10" fill="#FCD34D"/>
  <rect x="277" y="160" width="16" height="22" rx="8" fill="#059669"/>
  <rect x="292" y="148" width="10" height="16" rx="2" fill="#111827"/>
  <line x1="297" y1="152" x2="297" y2="160" stroke="#60A5FA" stroke-width="1"/>
  <text x="285" y="198" text-anchor="middle" fill="#DC2626" font-family="PingFang SC, Microsoft YaHei, sans-serif" font-size="10" font-weight="700">使用手机</text>
  <rect x="12" y="12" width="110" height="24" rx="4" fill="#DC2626" opacity="0.92"/>
  <text x="67" y="28" text-anchor="middle" fill="#FFFFFF" font-family="PingFang SC, Microsoft YaHei, sans-serif" font-size="11" font-weight="600">中石化加油站</text>
</svg>
