<svg xmlns="http://www.w3.org/2000/svg" viewBox="0 0 400 260" fill="none">
  <rect width="400" height="260" fill="#87CEEB"/>
  <path d="M0 180 L400 180 L400 260 L0 260 Z" fill="#9CA3AF"/>
  <path d="M30 180 L200 110 L370 180 Z" fill="#DC2626"/>
  <text x="200" y="145" text-anchor="middle" fill="#FFFFFF" font-family="PingFang SC, Microsoft YaHei, sans-serif" font-size="18" font-weight="700">中国石化</text>
  <rect x="20" y="60" width="90" height="50" rx="4" fill="#FBBF24" stroke="#111827" stroke-width="2"/>
  <text x="65" y="82" text-anchor="middle" fill="#111827" font-family="PingFang SC, Microsoft YaHei, sans-serif" font-size="11" font-weight="700">施工区域</text>
  <text x="65" y="98" text-anchor="middle" fill="#111827" font-family="PingFang SC, Microsoft YaHei, sans-serif" font-size="10">注意安全</text>
  <!-- 未戴安全帽 -->
  <circle cx="110" cy="148" r="30" fill="none" stroke="#DC2626" stroke-width="3"/>
  <ellipse cx="110" cy="138" rx="10" ry="12" fill="#FCD34D"/>
  <rect x="102" y="150" width="16" height="28" rx="6" fill="#F97316"/>
  <rect x="96" y="178" width="28" height="6" rx="2" fill="#374151"/>
  <text x="110" y="200" text-anchor="middle" fill="#DC2626" font-family="PingFang SC, Microsoft YaHei, sans-serif" font-size="10" font-weight="700">未戴安全帽</text>
  <!-- 高空未系安全带 -->
  <rect x="260" y="120" width="12" height="60" fill="#6B7280"/>
  <rect x="240" y="178" width="52" height="6" fill="#6B7280"/>
  <circle cx="266" cy="132" r="28" fill="none" stroke="#DC2626" stroke-width="3"/>
  <ellipse cx="266" cy="122" rx="9" ry="11" fill="#FCD34D"/>
  <rect x="261" y="128" width="10" height="8" rx="2" fill="#FBBF24"/>
  <rect x="258" y="136" width="16" height="22" rx="6" fill="#2563EB"/>
  <line x1="266" y1="136" x2="266" y2="178" stroke="#DC2626" stroke-width="2" stroke-dasharray="4 3"/>
  <text x="266" y="200" text-anchor="middle" fill="#DC2626" font-family="PingFang SC, Microsoft YaHei, sans-serif" font-size="10" font-weight="700">未系安全带</text>
  <rect x="12" y="12" width="130" height="24" rx="4" fill="#DC2626" opacity="0.92"/>
  <text x="77" y="28" text-anchor="middle" fill="#FFFFFF" font-family="PingFang SC, Microsoft YaHei, sans-serif" font-size="11" font-weight="600">中石化站房改造施工</text>
</svg>
